<svg version="1.1" xmlns="http://www.w3.org/2000/svg" style="display: block;" viewBox="0 0 2048 2048" width="1024" height="1024" preserveAspectRatio="none">
<defs>
	<linearGradient id="Gradient1" gradientUnits="userSpaceOnUse" x1="1051.99" y1="950.202" x2="1015.06" y2="788.015">
		<stop class="stop0" offset="0" stop-opacity="1" stop-color="rgb(6,123,132)"/>
		<stop class="stop1" offset="1" stop-opacity="1" stop-color="rgb(9,156,145)"/>
	</linearGradient>
	<linearGradient id="Gradient2" gradientUnits="userSpaceOnUse" x1="1230.24" y1="1054.95" x2="1303.35" y2="907.837">
		<stop class="stop0" offset="0" stop-opacity="1" stop-color="rgb(18,85,177)"/>
		<stop class="stop1" offset="1" stop-opacity="1" stop-color="rgb(42,152,215)"/>
	</linearGradient>
	<linearGradient id="Gradient3" gradientUnits="userSpaceOnUse" x1="1101.19" y1="1114.6" x2="1067.34" y2="987.389">
		<stop class="stop0" offset="0" stop-opacity="1" stop-color="rgb(27,58,153)"/>
		<stop class="stop1" offset="1" stop-opacity="1" stop-color="rgb(73,159,215)"/>
	</linearGradient>
	<linearGradient id="Gradient4" gradientUnits="userSpaceOnUse" x1="1027.3" y1="1330.08" x2="1410.39" y2="1095.68">
		<stop class="stop0" offset="0" stop-opacity="1" stop-color="rgb(4,28,112)"/>
		<stop class="stop1" offset="1" stop-opacity="1" stop-color="rgb(21,93,176)"/>
	</linearGradient>
	<linearGradient id="Gradient5" gradientUnits="userSpaceOnUse" x1="837.68" y1="1046.9" x2="723.819" y2="935.589">
		<stop class="stop0" offset="0" stop-opacity="1" stop-color="rgb(21,84,174)"/>
		<stop class="stop1" offset="1" stop-opacity="1" stop-color="rgb(38,147,214)"/>
	</linearGradient>
	<linearGradient id="Gradient6" gradientUnits="userSpaceOnUse" x1="957.713" y1="1136.54" x2="736.153" y2="949.404">
		<stop class="stop0" offset="0" stop-opacity="1" stop-color="rgb(48,85,169)"/>
		<stop class="stop1" offset="1" stop-opacity="1" stop-color="rgb(100,194,241)"/>
	</linearGradient>
	<linearGradient id="Gradient7" gradientUnits="userSpaceOnUse" x1="1229.76" y1="933.544" x2="1240.21" y2="759.334">
		<stop class="stop0" offset="0" stop-opacity="1" stop-color="rgb(125,158,206)"/>
		<stop class="stop1" offset="1" stop-opacity="1" stop-color="rgb(173,199,227)"/>
	</linearGradient>
	<linearGradient id="Gradient8" gradientUnits="userSpaceOnUse" x1="1252.82" y1="896.942" x2="1271.78" y2="639.145">
		<stop class="stop0" offset="0" stop-opacity="1" stop-color="rgb(201,222,237)"/>
		<stop class="stop1" offset="1" stop-opacity="1" stop-color="rgb(237,250,252)"/>
	</linearGradient>
	<linearGradient id="Gradient9" gradientUnits="userSpaceOnUse" x1="1169.12" y1="1044.1" x2="1129.21" y2="830.791">
		<stop class="stop0" offset="0" stop-opacity="1" stop-color="rgb(142,179,221)"/>
		<stop class="stop1" offset="1" stop-opacity="1" stop-color="rgb(208,242,246)"/>
	</linearGradient>
	<linearGradient id="Gradient10" gradientUnits="userSpaceOnUse" x1="793.23" y1="899.665" x2="810.85" y2="679.304">
		<stop class="stop0" offset="0" stop-opacity="1" stop-color="rgb(192,214,234)"/>
		<stop class="stop1" offset="1" stop-opacity="1" stop-color="rgb(221,254,254)"/>
	</linearGradient>
	<linearGradient id="Gradient11" gradientUnits="userSpaceOnUse" x1="877.137" y1="1027" x2="642.245" y2="737.444">
		<stop class="stop0" offset="0" stop-opacity="1" stop-color="rgb(180,202,231)"/>
		<stop class="stop1" offset="1" stop-opacity="1" stop-color="rgb(168,227,239)"/>
	</linearGradient>
	<linearGradient id="Gradient12" gradientUnits="userSpaceOnUse" x1="846.271" y1="1025.65" x2="804.541" y2="769.978">
		<stop class="stop0" offset="0" stop-opacity="1" stop-color="rgb(101,143,203)"/>
		<stop class="stop1" offset="1" stop-opacity="1" stop-color="rgb(169,195,223)"/>
	</linearGradient>
	<linearGradient id="Gradient13" gradientUnits="userSpaceOnUse" x1="106.522" y1="2052.34" x2="108.571" y2="2026.91">
		<stop class="stop0" offset="0" stop-opacity="1" stop-color="rgb(35,139,134)"/>
		<stop class="stop1" offset="1" stop-opacity="1" stop-color="rgb(47,182,175)"/>
	</linearGradient>
</defs>
<path transform="translate(0,0)" fill="rgb(57,231,219)" d="M 0 0 L 2048 0 L 2048 2048 L 691.545 2048 L 0 2048 L 0 1989.17 L 0 0 z"/>
<path transform="translate(0,0)" fill="url(#Gradient13)" d="M 0 1989.17 C 8.58637 1995.71 -0.441443 2021.57 4.42121 2022.89 C 18.7427 2026.79 37.9267 2025.03 52.9718 2025.67 C 52.4274 2025.64 59.8949 2023.22 60.5107 2023.06 C 62.7224 2024.38 63.0128 2024.67 64.9415 2026.41 C 73.3768 2027.49 81.6914 2025.99 89.8796 2026.58 C 97.0019 2027.1 104.729 2028.7 112.064 2029.2 C 135.23 2030.77 158.427 2034.02 181.572 2035.53 C 192.145 2036.23 206.818 2044.32 214.641 2044.41 C 245.098 2044.76 275.907 2044.71 306.358 2044.75 L 498.999 2044.81 L 609.526 2044.95 C 635.759 2044.92 664.938 2044.04 690.948 2047.14 L 691.545 2048 L 0 2048 L 0 1989.17 z"/>
<path transform="translate(0,0)" fill="rgb(5,15,79)" d="M 1030.89 511.015 C 1035.29 510.908 1040.85 510.288 1044.06 513.477 C 1053.61 522.978 1062.61 535.082 1070.94 545.632 L 1124.13 613.799 C 1141.02 635.399 1158.61 656.391 1174.97 678.392 C 1184.17 690.749 1178.08 705.814 1162.5 706.676 C 1142.95 707.756 1122.58 706.934 1102.92 706.74 C 1102.63 752.715 1103.2 798.828 1102.61 844.759 C 1121.69 823.939 1140.12 802.534 1157.87 780.575 C 1205.8 721.922 1268.56 637.713 1348.78 625.947 C 1394.28 619.275 1431.91 648.561 1437.45 694.522 C 1478.86 677.091 1533.5 673.003 1547.16 729.103 C 1556.88 769.037 1536.18 820.448 1514.76 854.452 C 1516.54 857.465 1518.16 860.57 1519.61 863.753 C 1544.05 916.938 1541.47 985.497 1520.03 1039.83 C 1493.38 1105.98 1451.69 1181.86 1387.95 1217.84 C 1344.12 1242.42 1301.42 1225.71 1256.09 1222.7 C 1171.93 1217.11 1101.36 1271.82 1029.47 1304.96 C 947.261 1345.45 867.262 1353.17 779.169 1324.63 C 697.565 1298.19 598.137 1236.38 556.555 1159.13 C 531.266 1112.14 521.588 1045.63 537.784 994.366 C 506.958 939.159 493.635 871.191 515.061 810.582 C 513.647 807.445 512.357 804.254 511.194 801.016 C 503.485 780.095 499.569 757.07 509.694 736.151 C 516.059 722.807 527.467 712.54 541.406 707.612 C 567.895 698.384 592.744 707.465 616.54 718.768 C 620.406 675.144 658.83 646.818 700.806 650.153 C 805.53 658.471 897.738 759.603 965.058 830.925 L 965.043 706.939 C 945.255 706.344 925.047 708.189 905.387 706.658 C 890.847 705.526 884.353 690.987 893.357 679.297 C 914.021 652.47 935.588 626.356 956.661 599.849 L 998.36 547.228 C 1006.04 537.553 1020.93 516.627 1030.89 511.015 z"/>
<path transform="translate(0,0)" fill="rgb(49,158,214)" d="M 1102.89 873.372 C 1114.3 862.903 1126.64 848.094 1137.03 836.405 C 1173.5 795.117 1200.66 758.084 1238.59 716.732 C 1272.63 679.621 1349.21 614.856 1401.01 660.298 C 1415.65 673.136 1418.88 696.556 1419.19 715.556 C 1420.52 716.827 1423.67 719.622 1424.52 720.985 C 1432.79 721.545 1447 713.129 1454.42 710.112 C 1530.19 679.28 1542.68 746.258 1519.52 801.538 C 1517.71 805.865 1515.41 812.389 1512.79 816.053 C 1506.23 832.981 1498.01 841.416 1491.99 854.505 C 1518.56 899.512 1523.96 952.72 1511.2 1003.08 C 1505.13 1027.04 1491.54 1060.9 1477.83 1081.11 C 1473.42 1096.29 1448.7 1134.79 1437.42 1146.9 C 1416.93 1176 1384.3 1204.28 1348.31 1210.6 C 1322.51 1215.13 1301.28 1208.59 1275.95 1205.12 C 1245.02 1200.89 1216.16 1203.4 1186.02 1211.27 C 1165.18 1216.78 1144.87 1224.17 1125.36 1233.36 C 1104.86 1242.92 1005.65 1298.49 993.228 1298.57 C 978.597 1304.41 966.088 1310.73 950.47 1313.77 C 929.044 1322 884.153 1323.48 860.924 1321.69 C 798.203 1316.86 736.429 1291.84 683.944 1257.87 C 671.488 1249.81 648.444 1235.23 638.878 1224.25 C 586.8 1190.01 549.628 1116.52 549.916 1055.22 C 550.003 1036.71 551.599 1009.87 558.776 992.744 C 556.021 983.563 546.38 970.033 542.632 959.991 C 522.627 906.389 514.067 863.689 536.883 810.507 C 527.237 790.895 517.367 766.644 527.272 745.111 C 539.437 718.663 571.791 720.047 594.458 730.317 C 605.563 735.349 614.71 742.074 625.384 747.225 L 626.387 747.698 L 630.643 746.606 C 639.153 738.44 634.282 725.003 637.139 712.788 C 643.758 684.482 669.931 669.194 697.661 669.438 C 772.614 671.933 848.168 740.409 898.888 790.585 C 921.848 813.299 943.63 837.729 965.065 860.77 L 965.08 916.072 C 965.222 937.828 963.746 963.412 966.125 985.137 C 966.322 986.934 969.507 990.035 970.829 991.507 C 982.456 997.181 985.37 990.474 995.285 985.399 L 997.01 984.532 C 1011.58 973.946 1036.31 962.276 1052.51 953.4 C 1063.65 947.3 1095.9 936.128 1102.09 929.838 C 1103.41 919.064 1102.94 901.077 1102.93 889.67 L 1102.89 873.372 z"/>
<path transform="translate(0,0)" fill="url(#Gradient12)" d="M 630.643 746.606 C 639.153 738.44 634.282 725.003 637.139 712.788 C 643.758 684.482 669.931 669.194 697.661 669.438 C 772.614 671.933 848.168 740.409 898.888 790.585 C 921.848 813.299 943.63 837.729 965.065 860.77 L 965.08 916.072 C 965.222 937.828 963.746 963.412 966.125 985.137 C 966.322 986.934 969.507 990.035 970.829 991.507 C 950.8 1005.28 918.764 1014.73 894.959 1019.42 C 889.305 1020.53 871.495 1022.34 868.305 1023.39 L 867.277 1022.54 C 845.281 1003.23 829.47 992.839 808.001 970.216 L 803.016 966.676 C 796.076 965.271 785.324 961.322 776.923 959.423 C 752.587 953.923 718.521 952.61 694.965 961.52 L 693.644 960.578 C 659.483 973.935 633.283 998.265 619.4 1032.09 C 616.515 1039.12 609.849 1052.41 612.518 1059.66 C 595.69 1046.63 566.288 1012.12 558.776 992.744 C 556.021 983.563 546.38 970.033 542.632 959.991 C 522.627 906.389 514.067 863.689 536.883 810.507 C 527.237 790.895 517.367 766.644 527.272 745.111 C 539.437 718.663 571.791 720.047 594.458 730.317 C 605.563 735.349 614.71 742.074 625.384 747.225 L 626.387 747.698 L 630.643 746.606 z"/>
<path transform="translate(0,0)" fill="url(#Gradient11)" d="M 536.883 810.507 C 527.237 790.895 517.367 766.644 527.272 745.111 C 539.437 718.663 571.791 720.047 594.458 730.317 C 605.563 735.349 614.71 742.074 625.384 747.225 L 626.387 747.698 L 630.643 746.606 C 641.055 755.642 647.731 762.906 656.53 773.483 C 658.836 776.255 670.129 790.487 671.793 791.775 C 672.369 795.763 686.262 813.745 689.217 817.993 C 715.418 855.658 738.032 888.767 775.625 916.84 C 824.952 953.777 884.851 973.869 946.474 974.149 C 907.241 992.088 878.08 995.984 835.992 980.816 C 829.025 978.306 814.32 971.301 808.001 970.216 L 803.016 966.676 C 796.076 965.271 785.324 961.322 776.923 959.423 C 752.587 953.923 718.521 952.61 694.965 961.52 L 693.644 960.578 C 659.483 973.935 633.283 998.265 619.4 1032.09 C 616.515 1039.12 609.849 1052.41 612.518 1059.66 C 595.69 1046.63 566.288 1012.12 558.776 992.744 C 556.021 983.563 546.38 970.033 542.632 959.991 C 522.627 906.389 514.067 863.689 536.883 810.507 z"/>
<path transform="translate(0,0)" fill="rgb(140,231,242)" d="M 536.883 810.507 C 537.306 814.797 543.425 820.562 546.845 823.217 C 571.219 842.144 604.576 850.708 633.678 859.639 L 634.522 859.916 C 643.846 899.589 665.062 931.883 693.644 960.578 C 659.483 973.935 633.283 998.265 619.4 1032.09 C 616.515 1039.12 609.849 1052.41 612.518 1059.66 C 595.69 1046.63 566.288 1012.12 558.776 992.744 C 556.021 983.563 546.38 970.033 542.632 959.991 C 522.627 906.389 514.067 863.689 536.883 810.507 z"/>
<path transform="translate(0,0)" fill="rgb(211,246,250)" d="M 536.883 810.507 C 527.237 790.895 517.367 766.644 527.272 745.111 C 539.437 718.663 571.791 720.047 594.458 730.317 C 605.563 735.349 614.71 742.074 625.384 747.225 L 626.387 747.698 C 627.949 753.046 626.935 782.911 626.965 790.776 C 627.05 812.896 633.483 838.526 633.678 859.639 C 604.576 850.708 571.219 842.144 546.845 823.217 C 543.425 820.562 537.306 814.797 536.883 810.507 z"/>
<path transform="translate(0,0)" fill="rgb(89,189,227)" d="M 634.522 859.916 C 699.705 877.406 756.969 918.184 803.016 966.676 C 796.076 965.271 785.324 961.322 776.923 959.423 C 752.587 953.923 718.521 952.61 694.965 961.52 L 693.644 960.578 C 665.062 931.883 643.846 899.589 634.522 859.916 z"/>
<path transform="translate(0,0)" fill="url(#Gradient10)" d="M 630.643 746.606 C 639.153 738.44 634.282 725.003 637.139 712.788 C 643.758 684.482 669.931 669.194 697.661 669.438 C 772.614 671.933 848.168 740.409 898.888 790.585 C 921.848 813.299 943.63 837.729 965.065 860.77 L 965.08 916.072 C 916.364 905.383 900.048 875.476 868.058 844.612 C 855.091 831.917 840.415 821.096 824.455 812.462 C 780.981 788.674 719.749 777.767 671.793 791.775 C 670.129 790.487 658.836 776.255 656.53 773.483 C 647.731 762.906 641.055 755.642 630.643 746.606 z"/>
<path transform="translate(0,0)" fill="url(#Gradient9)" d="M 1102.89 873.372 C 1114.3 862.903 1126.64 848.094 1137.03 836.405 C 1173.5 795.117 1200.66 758.084 1238.59 716.732 C 1272.63 679.621 1349.21 614.856 1401.01 660.298 C 1415.65 673.136 1418.88 696.556 1419.19 715.556 C 1420.52 716.827 1423.67 719.622 1424.52 720.985 C 1432.79 721.545 1447 713.129 1454.42 710.112 C 1530.19 679.28 1542.68 746.258 1519.52 801.538 C 1517.71 805.865 1515.41 812.389 1512.79 816.053 C 1504.69 819.182 1491.42 833.589 1481.13 837.763 C 1460.6 846.085 1437.65 849.453 1415.8 855.717 L 1413.25 856.359 C 1367.18 870.95 1315.23 897.128 1277.98 928.244 L 1275.34 929.809 C 1258.71 936.31 1242.37 946.773 1227.06 955.814 C 1183.75 981.39 1144.53 1012.56 1102.19 1039.46 C 1087.82 1048.6 1071.55 1057.01 1056.08 1064.15 C 1051.55 1066.24 1035.77 1070.19 1033.29 1071.59 C 1030.46 1072.21 1027.62 1072.76 1024.77 1073.25 C 963.749 1083.59 916.363 1057.38 868.305 1023.39 C 871.495 1022.34 889.305 1020.53 894.959 1019.42 C 918.764 1014.73 950.8 1005.28 970.829 991.507 C 982.456 997.181 985.37 990.474 995.285 985.399 L 997.01 984.532 C 1011.58 973.946 1036.31 962.276 1052.51 953.4 C 1063.65 947.3 1095.9 936.128 1102.09 929.838 C 1103.41 919.064 1102.94 901.077 1102.93 889.67 L 1102.89 873.372 z"/>
<path transform="translate(0,0)" fill="url(#Gradient8)" d="M 1102.89 873.372 C 1114.3 862.903 1126.64 848.094 1137.03 836.405 C 1173.5 795.117 1200.66 758.084 1238.59 716.732 C 1272.63 679.621 1349.21 614.856 1401.01 660.298 C 1415.65 673.136 1418.88 696.556 1419.19 715.556 C 1407.86 725.38 1399.87 732.072 1390.07 743.645 C 1386.87 747.425 1375.28 762.857 1373.06 764.91 C 1289.85 768.633 1231.78 800.174 1165.4 846.953 C 1146.54 860.238 1122.23 878.481 1102.93 889.67 L 1102.89 873.372 z"/>
<path transform="translate(0,0)" fill="url(#Gradient7)" d="M 1102.93 889.67 C 1122.23 878.481 1146.54 860.238 1165.4 846.953 C 1231.78 800.174 1289.85 768.633 1373.06 764.91 C 1361.47 779.731 1351.89 795.541 1341.81 811.372 C 1338.19 817.054 1334.26 824.475 1329.35 828.818 L 1327.79 829.402 C 1309.23 839.223 1290.89 850.428 1272.11 859.655 C 1242.37 874.266 1211.72 889.463 1181.08 902.062 C 1164.85 908.637 1148.36 914.563 1131.65 919.826 C 1124.29 922.223 1108.43 926.912 1102.09 929.838 C 1103.41 919.064 1102.94 901.077 1102.93 889.67 z"/>
<path transform="translate(0,0)" fill="rgb(211,246,250)" d="M 1424.52 720.985 C 1432.79 721.545 1447 713.129 1454.42 710.112 C 1530.19 679.28 1542.68 746.258 1519.52 801.538 C 1517.71 805.865 1515.41 812.389 1512.79 816.053 C 1504.69 819.182 1491.42 833.589 1481.13 837.763 C 1460.6 846.085 1437.65 849.453 1415.8 855.717 C 1415.66 841.095 1424.89 820.16 1420.67 803.292 C 1418.89 796.16 1418.38 787.547 1412.02 782.437 C 1406.13 776.06 1407.29 775.732 1412.5 768.129 C 1423.05 752.761 1421.88 739.209 1424.52 720.985 z"/>
<path transform="translate(0,0)" fill="rgb(234,243,248)" d="M 1327.79 829.402 C 1326.16 841.178 1304.57 869.537 1297.37 879.766 C 1260.57 932.024 1215.93 913.157 1161.66 916.774 C 1135.89 918.491 1013.72 987.304 997.01 984.532 C 1011.58 973.946 1036.31 962.276 1052.51 953.4 C 1063.65 947.3 1095.9 936.128 1102.09 929.838 C 1108.43 926.912 1124.29 922.223 1131.65 919.826 C 1148.36 914.563 1164.85 908.637 1181.08 902.062 C 1211.72 889.463 1242.37 874.266 1272.11 859.655 C 1290.89 850.428 1309.23 839.223 1327.79 829.402 z"/>
<path transform="translate(0,0)" fill="rgb(140,231,242)" d="M 1419.19 715.556 C 1420.52 716.827 1423.67 719.622 1424.52 720.985 C 1421.88 739.209 1423.05 752.761 1412.5 768.129 C 1407.29 775.732 1406.13 776.06 1412.02 782.437 L 1407.28 779.432 C 1400.38 784.196 1392.87 793.373 1386.29 797.953 C 1369.59 809.582 1347.95 820.58 1329.35 828.818 C 1334.26 824.475 1338.19 817.054 1341.81 811.372 C 1351.89 795.541 1361.47 779.731 1373.06 764.91 C 1375.28 762.857 1386.87 747.425 1390.07 743.645 C 1399.87 732.072 1407.86 725.38 1419.19 715.556 z"/>
<path transform="translate(0,0)" fill="rgb(89,189,227)" d="M 693.644 960.578 L 694.965 961.52 C 703.477 969.063 709.086 973.047 717.861 979.784 L 715.045 978.757 L 714.03 979.475 L 712.726 978.731 C 714.954 981.068 715.434 982.199 717.245 984.534 C 747.706 1023.8 787.964 1053.02 820.224 1091.11 C 835.144 1101.23 861.439 1149.19 870.808 1166.66 C 870.202 1168.22 870.728 1167.68 869.324 1168.37 C 846.858 1166.85 834.005 1163.7 812.522 1160.14 C 808.81 1158.68 803.124 1157.1 798.916 1155.57 C 796.494 1154.26 767.085 1146.27 760.818 1143.93 C 716.443 1127.35 674.53 1108.71 636.624 1079.77 C 629.392 1074.25 618.653 1066.13 612.518 1059.66 C 609.849 1052.41 616.515 1039.12 619.4 1032.09 C 633.283 998.265 659.483 973.935 693.644 960.578 z"/>
<path transform="translate(0,0)" fill="rgb(77,142,207)" d="M 820.224 1091.11 C 835.144 1101.23 861.439 1149.19 870.808 1166.66 C 870.202 1168.22 870.728 1167.68 869.324 1168.37 C 846.858 1166.85 834.005 1163.7 812.522 1160.14 C 808.81 1158.68 803.124 1157.1 798.916 1155.57 C 809.468 1155.7 838.244 1164.99 844.479 1162.68 C 849.434 1156.18 851.925 1147.77 853.924 1139.96 C 848.84 1131.1 843.198 1122.58 837.03 1114.45 C 832.863 1108.9 822.837 1096.47 820.224 1091.11 z"/>
<path transform="translate(0,0)" fill="url(#Gradient6)" d="M 694.965 961.52 C 718.521 952.61 752.587 953.923 776.923 959.423 C 785.324 961.322 796.076 965.271 803.016 966.676 L 808.001 970.216 C 829.47 992.839 845.281 1003.23 867.277 1022.54 L 868.305 1023.39 C 916.363 1057.38 963.749 1083.59 1024.77 1073.25 C 1027.62 1072.76 1030.46 1072.21 1033.29 1071.59 L 1033.86 1072.7 C 1027.02 1074.93 1017.83 1076.16 1010.65 1076.33 C 1004.7 1081.88 994.895 1085.79 987.401 1089.26 C 959.001 1102.39 903.706 1131.47 900.022 1166.51 C 909.77 1170.43 939.944 1148.99 953.124 1146.47 C 946.981 1150.42 915.109 1166.71 908.311 1168.6 C 899.263 1172.8 888.877 1177.9 879.81 1181.78 C 877.633 1180.02 875.144 1172.85 873.28 1169.2 C 871.821 1169.09 870.76 1168.73 869.324 1168.37 C 870.728 1167.68 870.202 1168.22 870.808 1166.66 C 861.439 1149.19 835.144 1101.23 820.224 1091.11 C 787.964 1053.02 747.706 1023.8 717.245 984.534 C 715.434 982.199 714.954 981.068 712.726 978.731 L 714.03 979.475 L 715.045 978.757 L 717.861 979.784 C 709.086 973.047 703.477 969.063 694.965 961.52 z"/>
<path transform="translate(0,0)" fill="url(#Gradient5)" d="M 694.965 961.52 C 718.521 952.61 752.587 953.923 776.923 959.423 C 785.324 961.322 796.076 965.271 803.016 966.676 L 808.001 970.216 C 829.47 992.839 845.281 1003.23 867.277 1022.54 C 832.177 1026.98 778.295 1009.33 745.607 994.579 C 736.806 990.607 726.94 984.083 717.861 979.784 C 709.086 973.047 703.477 969.063 694.965 961.52 z"/>
<path transform="translate(0,0)" fill="rgb(10,62,153)" d="M 873.28 1169.2 C 879.825 1169.04 904.136 1167.83 908.311 1168.6 C 899.263 1172.8 888.877 1177.9 879.81 1181.78 C 877.633 1180.02 875.144 1172.85 873.28 1169.2 z"/>
<path transform="translate(0,0)" fill="url(#Gradient4)" d="M 1373.85 1140.05 C 1390.87 1143.66 1410.21 1128.69 1425.84 1126.92 C 1431.92 1126.24 1434.15 1138.52 1437.45 1143.38 L 1437.42 1146.9 C 1416.93 1176 1384.3 1204.28 1348.31 1210.6 C 1322.51 1215.13 1301.28 1208.59 1275.95 1205.12 C 1245.02 1200.89 1216.16 1203.4 1186.02 1211.27 C 1165.18 1216.78 1144.87 1224.17 1125.36 1233.36 C 1104.86 1242.92 1005.65 1298.49 993.228 1298.57 C 1007.46 1285.34 1032.57 1269.37 1048.22 1255.41 C 1106.12 1203.82 1154.26 1151.08 1235.96 1140.1 C 1256.24 1137.38 1274.73 1137.57 1295.24 1138.77 C 1302.56 1139.2 1319.74 1141.18 1325.9 1140.92 L 1327.64 1140.83 C 1344.79 1141.64 1356.74 1141.47 1373.85 1140.05 z"/>
<path transform="translate(0,0)" fill="rgb(57,231,219)" d="M 1415.8 855.717 C 1437.65 849.453 1460.6 846.085 1481.13 837.763 C 1491.42 833.589 1504.69 819.182 1512.79 816.053 C 1506.23 832.981 1498.01 841.416 1491.99 854.505 C 1518.56 899.512 1523.96 952.72 1511.2 1003.08 C 1505.13 1027.04 1491.54 1060.9 1477.83 1081.11 C 1473.42 1096.29 1448.7 1134.79 1437.42 1146.9 L 1437.45 1143.38 C 1434.15 1138.52 1431.92 1126.24 1425.84 1126.92 C 1410.21 1128.69 1390.87 1143.66 1373.85 1140.05 C 1356.74 1141.47 1344.79 1141.64 1327.64 1140.83 C 1346.24 1136.96 1373.72 1143.22 1392.83 1134.17 C 1397.81 1131.82 1393.07 1131.99 1394.48 1125.98 C 1397.79 1111.85 1401.17 1098.89 1406.07 1085.15 C 1414.31 1062.04 1418.43 1037.26 1426.47 1013.83 C 1429.39 1004.99 1430.78 991.677 1433.32 981.864 L 1433.31 984.886 C 1435.14 977.617 1435.23 965.903 1437.22 962.951 L 1438.2 962.9 L 1438.51 965.647 C 1441.57 964.523 1442.64 950.385 1446.21 946.426 C 1452.65 939.278 1456.41 930.992 1466.13 927.827 L 1467.39 928.794 C 1467.48 930.855 1467.27 931.81 1467.98 933.573 C 1477.89 927.57 1481.41 928.315 1492.61 926.973 C 1501.29 925.932 1498.98 919.46 1504.78 917.177 L 1507.11 919.133 L 1506.49 917.123 L 1507.14 918.383 L 1505.41 917.031 L 1506.18 917.005 L 1507.17 918.248 L 1506.21 924.26 L 1507.06 924.727 C 1511.54 920.653 1510.1 922.53 1511.1 917.034 C 1513.7 904.256 1507.88 897.508 1504.57 885.983 C 1501.95 876.849 1497.67 867.567 1492.74 859.348 L 1491.47 859.583 C 1486.84 867.667 1479.22 873.27 1472.42 879.552 C 1451.24 899.12 1415.12 923.237 1386.11 926.681 L 1386.18 925.715 C 1382.34 926.151 1378.1 926.966 1374.24 927.608 C 1385.48 915.151 1395.08 901.313 1402.82 886.429 C 1405.59 881.017 1415.02 861.82 1413.25 856.359 L 1415.8 855.717 z"/>
<path transform="translate(0,0)" fill="rgb(140,231,242)" d="M 1415.8 855.717 C 1437.65 849.453 1460.6 846.085 1481.13 837.763 C 1491.42 833.589 1504.69 819.182 1512.79 816.053 C 1506.23 832.981 1498.01 841.416 1491.99 854.505 C 1489.46 865.223 1451.08 895.605 1439.88 902.267 C 1420.69 913.678 1407.35 919.981 1386.18 925.715 C 1382.34 926.151 1378.1 926.966 1374.24 927.608 C 1385.48 915.151 1395.08 901.313 1402.82 886.429 C 1405.59 881.017 1415.02 861.82 1413.25 856.359 L 1415.8 855.717 z"/>
<path transform="translate(0,0)" fill="rgb(20,83,167)" d="M 1477.83 1081.11 C 1473.42 1096.29 1448.7 1134.79 1437.42 1146.9 L 1437.45 1143.38 C 1434.15 1138.52 1431.92 1126.24 1425.84 1126.92 C 1410.21 1128.69 1390.87 1143.66 1373.85 1140.05 C 1431.7 1123.85 1434 1122.48 1477.83 1081.11 z"/>
<path transform="translate(0,0)" fill="url(#Gradient3)" d="M 1275.34 929.809 C 1270.85 936.724 1261.23 946.077 1255.55 952.478 C 1236.51 973.905 1217.1 992.562 1195.55 1011.34 C 1191.35 1015 1175 1027.83 1173.65 1029.46 L 1174.24 1030.5 C 1147.22 1043.51 1120.94 1053.81 1093.99 1068.08 C 1055.43 1088.5 1019.33 1111.2 981.088 1131.94 C 976.907 1134.21 956.335 1145.6 953.124 1146.47 C 939.944 1148.99 909.77 1170.43 900.022 1166.51 C 903.706 1131.47 959.001 1102.39 987.401 1089.26 C 994.895 1085.79 1004.7 1081.88 1010.65 1076.33 C 1017.83 1076.16 1027.02 1074.93 1033.86 1072.7 L 1033.29 1071.59 C 1035.77 1070.19 1051.55 1066.24 1056.08 1064.15 C 1071.55 1057.01 1087.82 1048.6 1102.19 1039.46 C 1144.53 1012.56 1183.75 981.39 1227.06 955.814 C 1242.37 946.773 1258.71 936.31 1275.34 929.809 z"/>
<path transform="translate(0,0)" fill="url(#Gradient2)" d="M 1413.25 856.359 C 1415.02 861.82 1405.59 881.017 1402.82 886.429 C 1395.08 901.313 1385.48 915.151 1374.24 927.608 C 1378.1 926.966 1382.34 926.151 1386.18 925.715 L 1386.11 926.681 C 1373.28 929.913 1377.12 926.481 1367.21 935.767 C 1358.87 943.578 1319.03 974.553 1309.54 975.121 L 1308.92 974.601 L 1308.12 974.937 C 1297.67 979.407 1286.35 986.824 1276.03 991.174 C 1244.17 1004.59 1207.22 1021.04 1174.24 1030.5 L 1173.65 1029.46 C 1175 1027.83 1191.35 1015 1195.55 1011.34 C 1217.1 992.562 1236.51 973.905 1255.55 952.478 C 1261.23 946.077 1270.85 936.724 1275.34 929.809 L 1277.98 928.244 C 1315.23 897.128 1367.18 870.95 1413.25 856.359 z"/>
<path transform="translate(0,0)" fill="rgb(89,189,227)" d="M 1413.25 856.359 C 1415.02 861.82 1405.59 881.017 1402.82 886.429 C 1395.08 901.313 1385.48 915.151 1374.24 927.608 C 1378.1 926.966 1382.34 926.151 1386.18 925.715 L 1386.11 926.681 C 1373.28 929.913 1377.12 926.481 1367.21 935.767 C 1358.87 943.578 1319.03 974.553 1309.54 975.121 L 1308.92 974.601 C 1323.61 966.25 1342.78 955.091 1355.29 943.823 C 1355.89 941.873 1357.08 940.481 1357.77 937.839 C 1356.46 934.09 1357.6 935.403 1354.75 933.375 L 1353.3 933.42 C 1342.75 933.565 1342.59 929.847 1333.05 927.155 C 1333.27 927.217 1327.64 926.691 1327.31 926.653 L 1335.04 925.867 C 1318.54 923.738 1294.4 925.282 1277.98 928.244 C 1315.23 897.128 1367.18 870.95 1413.25 856.359 z"/>
<path transform="translate(0,0)" fill="rgb(49,158,214)" d="M 1335.04 925.867 C 1348.23 925.955 1361.26 927.177 1374.11 927.157 C 1368.26 932.483 1361.42 939.043 1355.29 943.823 C 1355.89 941.873 1357.08 940.481 1357.77 937.839 C 1356.46 934.09 1357.6 935.403 1354.75 933.375 L 1353.3 933.42 C 1342.75 933.565 1342.59 929.847 1333.05 927.155 C 1333.27 927.217 1327.64 926.691 1327.31 926.653 L 1335.04 925.867 z"/>
<path transform="translate(0,0)" fill="rgb(20,83,167)" d="M 638.878 1224.25 C 694.603 1236.8 722.396 1231.96 777.74 1217.84 C 786.749 1215.55 807.145 1207.22 814.296 1205.89 L 814.751 1207.11 C 803.903 1213.45 760.642 1224.6 748.195 1226.14 C 750.521 1228.56 749.893 1226.78 751.558 1227.82 C 760.195 1233.27 773.617 1240.23 781.316 1246.66 C 805.154 1266.87 828.956 1286.98 853.126 1306.82 C 857.408 1310.33 860.377 1318.05 866.16 1320.13 C 885.671 1327.13 935.542 1311.3 950.47 1313.77 C 929.044 1322 884.153 1323.48 860.924 1321.69 C 798.203 1316.86 736.429 1291.84 683.944 1257.87 C 671.488 1249.81 648.444 1235.23 638.878 1224.25 z"/>
<path transform="translate(0,0)" fill="rgb(20,83,167)" d="M 812.522 1160.14 C 834.005 1163.7 846.858 1166.85 869.324 1168.37 C 870.76 1168.73 871.821 1169.09 873.28 1169.2 C 875.144 1172.85 877.633 1180.02 879.81 1181.78 C 869.683 1190.07 836.236 1198.77 823.175 1204.38 L 822.339 1203.53 C 828.844 1196.65 849.489 1194.92 857.975 1188.23 C 858.296 1187.98 873.376 1182.82 875.277 1182.08 C 874.821 1173.09 874.609 1182.18 870.662 1176.73 C 870.775 1174.43 871.09 1170.98 869.934 1170.67 C 857.24 1167.27 822.668 1166.33 812.522 1160.14 z"/>
<path transform="translate(0,0)" fill="rgb(9,197,156)" d="M 1035.39 533.613 C 1049.99 550.093 1071 577.962 1084.7 595.925 C 1109.01 625.692 1133.2 657.51 1157.03 687.824 C 1143.23 687.217 1129.44 687.649 1115.63 687.728 C 1109.04 687.765 1101.94 686.921 1095.45 687.839 C 1092.49 688.258 1089.26 689.238 1087.13 691.441 C 1079.93 698.857 1085.97 747.277 1083.54 761.499 C 1082.2 768.203 1078 777.305 1074.67 783.354 C 1055.7 817.786 1020.14 833.456 983.912 816.526 L 984.074 740.212 C 984.115 729.433 986.36 696.735 979.749 689.021 C 972.322 686.211 922.354 688.004 910.811 687.939 C 921.797 675.938 935.502 657.313 946.422 644.175 C 949.91 639.176 954.961 633.094 959.018 628.363 C 985.03 598.023 1008.71 563.195 1035.39 533.613 z"/>
<path transform="translate(0,0)" fill="rgb(80,239,168)" d="M 1035.39 533.613 C 1049.99 550.093 1071 577.962 1084.7 595.925 C 1075 598.998 1063.15 572.947 1043.89 578.219 C 1019.23 584.973 975.687 701.434 946.422 644.175 C 949.91 639.176 954.961 633.094 959.018 628.363 C 985.03 598.023 1008.71 563.195 1035.39 533.613 z"/>
<path transform="translate(0,0)" fill="url(#Gradient1)" d="M 983.912 816.526 C 1020.14 833.456 1055.7 817.786 1074.67 783.354 C 1078 777.305 1082.2 768.203 1083.54 761.499 C 1084.87 812.795 1084.17 867.661 1083.99 919.185 C 1055.62 929.255 1008.72 952.812 984.041 970.26 L 983.912 816.526 z"/>
<path transform="translate(0,0)" fill="rgb(5,15,79)" d="M 692.599 1395.36 C 703.546 1395.16 714.496 1395.09 725.445 1395.15 C 726.783 1411.94 725.759 1446.89 725.748 1465 L 807.023 1464.94 L 807.109 1395.41 C 818.379 1395.03 829.658 1395.03 840.928 1395.39 C 841.515 1417.82 841.048 1442.09 841.044 1464.66 C 841.165 1498.05 841.073 1531.43 840.767 1564.82 C 832.854 1565.38 816.046 1566.32 809.144 1564.09 C 805.736 1559.08 806.875 1508.55 806.854 1499.02 C 784.13 1498.2 748.4 1498.14 725.835 1498.75 C 725.055 1520.07 726.55 1544.25 724.97 1564.94 C 714.243 1565.39 703.502 1565.41 692.773 1565 C 691.186 1547.16 692.217 1514.56 692.393 1495.4 C 692.688 1463.29 691.252 1427.05 692.599 1395.36 z"/>
<path transform="translate(0,0)" fill="rgb(5,15,79)" d="M 1311.73 1435.29 C 1348.49 1430.84 1381.88 1457.06 1386.28 1493.83 C 1390.67 1530.59 1364.4 1563.95 1327.63 1568.29 C 1290.93 1572.62 1257.66 1546.42 1253.28 1509.73 C 1248.89 1473.04 1275.04 1439.73 1311.73 1435.29 z"/>
<path transform="translate(0,0)" fill="rgb(57,231,219)" d="M 1311.08 1468.9 C 1329.33 1464.06 1348.05 1474.91 1352.92 1493.14 C 1357.8 1511.38 1346.99 1530.12 1328.76 1535.04 C 1310.48 1539.97 1291.67 1529.12 1286.78 1510.83 C 1281.89 1492.54 1292.78 1473.75 1311.08 1468.9 z"/>
<path transform="translate(0,0)" fill="rgb(5,15,79)" d="M 1212.91 1438.99 C 1220.59 1439.04 1240.14 1436.5 1245.08 1441.78 C 1246.15 1448.07 1237.36 1462.57 1234.09 1468.89 C 1219.93 1495.73 1200.96 1541.04 1185.35 1565.03 C 1175.66 1565.55 1166.43 1565.39 1156.76 1565.07 C 1146.1 1552.44 1108.94 1466.3 1098.38 1446.87 C 1097.25 1444.79 1097.12 1441.69 1097.15 1439.31 C 1106.5 1438.69 1120.41 1439.02 1130.13 1438.99 C 1135.1 1447.46 1140.65 1459.89 1145.03 1468.95 C 1153.72 1487.1 1162.51 1505.19 1171.41 1523.23 L 1212.91 1438.99 z"/>
<path transform="translate(0,0)" fill="rgb(5,15,79)" d="M 992.837 1438.26 C 1001.94 1437.38 1008.04 1437.7 1017.04 1438.5 C 1017.48 1449.71 1017.3 1458.29 1016.68 1469.44 C 969.068 1468.92 963.773 1488.99 965.216 1530.35 C 965.593 1541.15 965.235 1554.09 964.884 1564.93 C 957.304 1565.17 949.363 1565.13 941.75 1565.21 C 938.279 1565.29 938.19 1565.35 934.616 1564.54 C 931.432 1560.38 932.687 1453.45 933.152 1439.55 C 943.692 1439.14 953.525 1439.26 964.054 1439.38 C 964.32 1444.83 964.345 1450.81 964.47 1456.31 C 974.604 1445.72 978.425 1441.99 992.837 1438.26 z"/>
<path transform="translate(0,0)" fill="rgb(5,15,79)" d="M 876.495 1439.49 C 884.991 1439.17 893.849 1439.33 902.378 1439.36 C 903.728 1456.56 902.251 1485.6 902.74 1503.63 C 903.038 1514.61 903.385 1553.68 901.888 1562.89 C 899.987 1565.38 901.218 1564.35 897.251 1565.07 C 887.606 1565.39 879.761 1565.48 870.097 1564.79 C 868.169 1550.83 869.146 1515.29 869.081 1499.92 C 869.022 1486.05 868.143 1454.21 869.515 1441.48 C 871.887 1439.23 872.39 1439.93 876.495 1439.49 z"/>
<path transform="translate(0,0)" fill="rgb(5,15,79)" d="M 1049.11 1439.45 C 1057.8 1439.04 1066.72 1439.26 1075.43 1439.35 C 1076.34 1451.79 1076.14 1560.57 1074.21 1564.49 L 1071.25 1565.16 C 1061.55 1565.35 1053.49 1565.51 1043.75 1564.9 C 1042.46 1551.75 1041.51 1445.01 1044.59 1440.27 L 1049.11 1439.45 z"/>
<path transform="translate(0,0)" fill="rgb(5,15,79)" d="M 883.002 1386.29 C 893.639 1384.01 904.123 1390.74 906.474 1401.37 C 908.825 1411.99 902.162 1422.52 891.555 1424.94 C 880.851 1427.38 870.204 1420.64 867.831 1409.92 C 865.458 1399.2 872.267 1388.6 883.002 1386.29 z"/>
<path transform="translate(0,0)" fill="rgb(5,15,79)" d="M 1055.77 1386.08 C 1066.46 1383.83 1076.94 1390.72 1079.11 1401.43 C 1081.27 1412.14 1074.3 1422.56 1063.57 1424.64 C 1052.97 1426.7 1042.69 1419.82 1040.55 1409.23 C 1038.41 1398.64 1045.2 1388.31 1055.77 1386.08 z"/>
<path transform="translate(0,0)" fill="rgb(234,243,248)" d="M 204.823 1988.61 C 208.4 1988.49 217.215 1988.05 220.318 1989.51 C 237.64 1997.63 232.296 2012.82 216.766 2018.63 L 216.114 2018.74 C 211.575 2019.56 206.854 2021.72 204.866 2016.93 C 205.854 2012.35 210.995 2005.51 213.826 2001.24 L 199.479 2000.99 C 201.098 1996.4 202.761 1992.99 204.823 1988.61 z"/>
<path transform="translate(0,0)" fill="rgb(9,197,156)" d="M 386.017 2004.98 C 389.705 2006.36 388.345 2005.2 390.352 2008.43 C 392.373 2005.84 395.884 2004.92 398.917 2006.2 C 401.949 2007.47 403.748 2010.62 403.305 2013.88 C 403.255 2014.25 403.177 2014.61 403.073 2014.97 C 402.971 2015.31 402.843 2015.65 402.691 2015.97 C 402.207 2019.6 402.883 2017.99 400.415 2020.88 C 397.521 2021.82 397.373 2021.88 394.405 2020.92 L 388.853 2019.08 C 387.122 2020.28 385.97 2021.17 384.325 2022.47 L 382.497 2021.89 L 380.686 2018.32 C 376.531 2019.09 379.087 2021.11 373.575 2022.5 C 371.355 2021.6 367.91 2020.04 365.616 2019.9 C 360.681 2019.58 355.086 2022.23 350.937 2019.56 C 348.16 2015.34 349.466 2011.73 350.352 2006.7 L 353.088 2006.03 C 356.764 2008.91 353.93 2014.25 357.312 2016.92 C 361.723 2014.05 360.703 2012.69 360.596 2007.42 L 361.951 2005.69 C 366.708 2007.26 363.94 2009.47 366.024 2014.07 L 367.263 2014.66 C 370.603 2016.03 370.894 2016.43 374.555 2016.29 L 368.075 2011.37 L 368.136 2009.02 C 370.474 2005.93 368.998 2007.1 372.974 2005.73 C 377.333 2006.5 375.538 2005.58 378.724 2008.22 L 378.449 2009.34 C 376.238 2009.6 374.279 2009.84 372.074 2010.19 C 374.783 2011.42 377.509 2012.61 380.249 2013.77 L 381.857 2013.59 C 381.979 2010.39 381.853 2009.75 382.791 2006.63 L 386.017 2004.98 z"/>
<path transform="translate(0,0)" fill="rgb(234,243,248)" d="M 390.352 2008.43 C 392.373 2005.84 395.884 2004.92 398.917 2006.2 C 401.949 2007.47 403.748 2010.62 403.305 2013.88 C 403.255 2014.25 403.177 2014.61 403.073 2014.97 C 402.971 2015.31 402.843 2015.65 402.691 2015.97 C 401.51 2018.51 398.982 2020.14 396.185 2020.18 C 393.389 2020.21 390.82 2018.64 389.576 2016.14 C 388.333 2013.63 388.634 2010.64 390.352 2008.43 z"/>
<path transform="translate(0,0)" fill="rgb(234,243,248)" d="M 350.352 2006.7 L 353.088 2006.03 C 356.764 2008.91 353.93 2014.25 357.312 2016.92 C 361.723 2014.05 360.703 2012.69 360.596 2007.42 L 361.951 2005.69 C 366.708 2007.26 363.94 2009.47 366.024 2014.07 L 364.982 2017.85 C 362.594 2020.17 362.739 2020.48 359.579 2021.14 C 350.96 2019.99 350.658 2013.6 350.352 2006.7 z"/>
<path transform="translate(0,0)" fill="rgb(234,243,248)" d="M 367.263 2014.66 C 370.603 2016.03 370.894 2016.43 374.555 2016.29 L 368.075 2011.37 L 368.136 2009.02 C 370.474 2005.93 368.998 2007.1 372.974 2005.73 C 377.333 2006.5 375.538 2005.58 378.724 2008.22 L 378.449 2009.34 C 376.238 2009.6 374.279 2009.84 372.074 2010.19 C 374.783 2011.42 377.509 2012.61 380.249 2013.77 C 378.207 2018.75 376.217 2021.85 369.88 2019.32 C 367.262 2016.53 367.979 2018.09 367.263 2014.66 z"/>
<path transform="translate(0,0)" fill="rgb(234,243,248)" d="M 381.857 2013.59 C 381.979 2010.39 381.853 2009.75 382.791 2006.63 L 386.017 2004.98 C 386.717 2011.23 386.963 2013.58 384.789 2019.4 L 383.452 2019.6 C 381.842 2016.76 382.017 2016.9 381.857 2013.59 z"/>
<path transform="translate(0,0)" fill="rgb(234,243,248)" d="M 182.726 1988.51 L 196.475 1988.5 L 189.149 2007.4 L 201.982 2007.64 L 193.674 2027.44 L 192.084 2027.07 C 192.025 2024.5 192.274 2022.76 190.963 2020.58 C 186.357 2019.31 174.957 2019.87 169.591 2019.95 C 172.564 2011.84 178.639 1995.79 182.726 1988.51 z"/>
<path transform="translate(0,0)" fill="rgb(9,197,156)" d="M 331.982 2006.98 C 333.341 2003.67 333.504 2002.45 336.395 2000.31 C 340.947 2002.28 337.984 2006.51 341.5 2005.46 C 343.356 2002.58 343.646 2001.2 346.365 1999.74 L 348.283 2000.71 L 348.81 2002.47 L 347.15 2004.79 C 348.903 2008.78 348.699 2006.73 347.463 2011.18 C 348.474 2015.79 349.063 2018.04 346.911 2021.69 C 343.647 2022.6 345.226 2022.65 342.007 2021.51 C 341.087 2017.73 340.738 2015.3 340.218 2011.42 L 339.291 2011.33 C 339.016 2014.93 339.119 2016.84 339.313 2020.47 C 336.392 2022.8 326.236 2022.21 323.458 2020.12 C 323.762 2017.71 324.12 2015.69 322.952 2013.46 C 322.582 2011.27 322.658 2009.45 322.618 2007.23 L 324.441 2003.02 C 327.412 2003.68 326.005 2003.22 328.615 2005.74 L 329.861 2007.01 L 331.982 2006.98 z"/>
<path transform="translate(0,0)" fill="rgb(234,243,248)" d="M 331.982 2006.98 C 333.341 2003.67 333.504 2002.45 336.395 2000.31 C 340.947 2002.28 337.984 2006.51 341.5 2005.46 C 343.356 2002.58 343.646 2001.2 346.365 1999.74 L 348.283 2000.71 L 348.81 2002.47 L 347.15 2004.79 C 348.903 2008.78 348.699 2006.73 347.463 2011.18 C 345.951 2015.16 347.742 2018.06 344.025 2020.29 C 339.601 2016.22 344.269 2012.76 340.459 2008.87 C 337.442 2011.57 337.252 2015.85 334.192 2020.23 C 333.027 2017.51 332.946 2011.57 332.196 2007.97 L 331.982 2006.98 z"/>
<path transform="translate(0,0)" fill="rgb(234,243,248)" d="M 329.861 2007.01 C 329.701 2011.11 329.378 2014.75 328.98 2018.84 L 327.948 2019.66 C 323.562 2016.3 323.638 2011.39 325.688 2006.7 L 328.615 2005.74 L 329.861 2007.01 z"/>
<path transform="translate(0,0)" fill="rgb(9,197,156)" d="M 145.938 1998.81 L 148.621 2000.22 C 149.31 2002.51 149.396 2002.66 150.573 2004.76 C 152.308 2004.75 155.618 2004.62 157.055 2005.29 C 161.92 2007.57 159.868 2018.7 158.308 2022.21 L 156.879 2022.43 C 153.75 2018.28 156.178 2015.58 153.033 2010.01 L 151.252 2010.26 C 149.514 2012.67 149.959 2014.5 149.99 2017.59 L 150.012 2018.93 C 149.439 2019.9 149.001 2020.86 148.501 2021.87 C 141.902 2022.77 134.965 2020.66 133.732 2013.26 C 134.826 2006.27 138.392 2010.34 141.633 2007.59 C 141.014 2004.98 139.678 2004.47 137.393 2002.2 L 137.604 2000.92 L 139.273 2000.35 C 140.341 2001.76 141.206 2002.83 142.364 2004.16 C 144.817 2002.69 144.472 2001.97 145.938 1998.81 z"/>
<path transform="translate(0,0)" fill="rgb(211,246,250)" d="M 145.992 2001.48 C 148.055 2003.03 147.164 2002.37 148.364 2005.35 C 152.228 2008.29 162.296 2003.47 157.41 2019.59 C 155.613 2016.47 155.91 2015.03 155.862 2011.43 L 155.855 2010.13 C 154.432 2007.72 153.218 2007.59 150.952 2007.72 C 148.35 2010.36 147.879 2014.8 146.779 2018.92 C 145.569 2014.88 145.984 2006.1 145.992 2001.48 z"/>
<path transform="translate(0,0)" fill="rgb(9,197,156)" d="M 405.7 2006.82 L 404.327 2006.02 L 405.239 2004.58 C 436.919 2000.11 419.793 2032.23 404.465 2019.84 L 404.54 2016.07 L 403.073 2014.97 C 403.177 2014.61 403.255 2014.25 403.305 2013.88 C 403.715 2011.46 403.704 2012.35 405.766 2009.96 L 405.7 2006.82 z"/>
<path transform="translate(0,0)" fill="rgb(234,243,248)" d="M 405.7 2006.82 C 418.02 2002.06 420.829 2009.47 419.467 2020.09 L 418.294 2019.75 C 416.638 2016.02 415.25 2011.48 412.42 2009.05 C 408.524 2012.67 410.248 2018.24 407.132 2019.32 C 405.386 2015.87 405.753 2013.82 405.766 2009.96 L 405.7 2006.82 z"/>
<path transform="translate(0,0)" fill="rgb(234,243,248)" d="M 269.535 2005.95 C 273.847 2006.11 277.68 2006 281.975 2005.89 C 282.116 2013.41 283.948 2022.25 277.114 2026.6 C 273.053 2027.19 272.292 2026.54 268.292 2024.97 L 268.252 2022.92 C 271.427 2020.21 272.029 2024.34 277.277 2022.26 L 277.636 2020.45 C 271.979 2019.32 269.419 2019.71 266.897 2014.39 C 266.973 2010.14 267.393 2009.82 269.535 2005.95 z"/>
<path transform="translate(0,0)" fill="rgb(234,243,248)" d="M 322.952 2013.46 C 313.359 2029.55 301.43 2015.67 308.344 2003.41 C 313.936 1999.78 318.326 2002.96 322.618 2007.23 C 322.658 2009.45 322.582 2011.27 322.952 2013.46 z"/>
<path transform="translate(0,0)" fill="rgb(9,197,156)" d="M 311.167 2005.27 C 314.409 2006.05 314.817 2005.87 317.341 2008.12 C 318.717 2011.23 317.973 2012.76 317.23 2016.12 C 314.695 2016.26 314.644 2016.18 312.136 2015.63 C 310.109 2011.93 310.973 2009.99 311.167 2005.27 z"/>
<path transform="translate(0,0)" fill="rgb(211,246,250)" d="M 82.9803 2001.27 C 84.6921 2005.06 84.1033 2014.72 83.4878 2018.85 C 80.797 2019.95 75.8501 2019.96 72.7184 2020.19 C 69.8982 2016.34 69.9184 2015.73 69.108 2011.22 C 71.7763 2006.15 75.7707 2007.66 81.8075 2005.5 L 82.9803 2001.27 z"/>
<path transform="translate(0,0)" fill="rgb(9,197,156)" d="M 74.212 2008.67 C 76.5947 2007.3 79.6369 2008.08 81.0682 2010.43 C 82.4996 2012.77 81.798 2015.84 79.487 2017.33 C 77.9397 2018.32 75.9733 2018.4 74.3502 2017.53 C 72.7271 2016.67 71.7025 2014.99 71.6738 2013.14 C 71.6451 2011.3 72.6167 2009.59 74.212 2008.67 z"/>
<path transform="translate(0,0)" fill="rgb(211,246,250)" d="M 55.7643 2005.89 C 58.686 2005.92 60.4187 2006.22 63.2597 2006.65 C 66.1073 2008.49 65.8559 2008.45 67.1669 2011.63 C 67.059 2014.68 67.2389 2016.32 65.9815 2019.13 L 64.5415 2019.34 C 52.9739 2021.49 49.0039 2015.51 55.7643 2005.89 z"/>
<path transform="translate(0,0)" fill="rgb(9,197,156)" d="M 56.9639 2008.69 C 59.3228 2007.32 62.3381 2008.08 63.7697 2010.4 C 65.2012 2012.72 64.5301 2015.76 62.2549 2017.26 C 60.7228 2018.26 58.7632 2018.36 57.1395 2017.51 C 55.5159 2016.65 54.4849 2014.98 54.4484 2013.15 C 54.4119 2011.31 55.3755 2009.61 56.9639 2008.69 z"/>
<path transform="translate(0,0)" fill="rgb(234,243,248)" d="M 288.114 2006.57 C 290.423 2005.29 293.244 2005.36 295.486 2006.76 C 297.728 2008.15 299.04 2010.65 298.913 2013.29 C 298.787 2015.92 297.243 2018.28 294.879 2019.46 C 291.336 2021.22 287.038 2019.82 285.2 2016.32 C 283.361 2012.82 284.656 2008.49 288.114 2006.57 z"/>
<path transform="translate(0,0)" fill="rgb(234,243,248)" d="M 254.765 2006.47 C 257.12 2005.25 259.952 2005.42 262.151 2006.9 C 264.351 2008.38 265.566 2010.94 265.323 2013.58 C 265.079 2016.22 263.414 2018.52 260.981 2019.57 C 257.392 2021.13 253.217 2019.56 251.541 2016.02 C 249.865 2012.49 251.29 2008.26 254.765 2006.47 z"/>
<path transform="translate(0,0)" fill="rgb(211,246,250)" d="M 90.5581 2005.75 C 94.587 2005.84 96.3232 2006.7 100.213 2008 L 100.683 2010.97 C 98.011 2012.75 93.4345 2014.19 90.2781 2015.38 L 90.0687 2016.76 L 91.964 2017.99 L 95.0525 2017.28 C 97.7658 2016.46 96.7776 2016.64 99.6502 2016.74 C 98.12 2020.72 93.1602 2020.8 89.6494 2019.14 C 85.4863 2013.85 86.5131 2010.3 90.5581 2005.75 z"/>
<path transform="translate(0,0)" fill="rgb(234,243,248)" d="M 239.913 2001.2 C 248.492 2004.47 241.183 2008.65 244.756 2016.31 C 247.688 2016.92 248.329 2016.79 250.391 2018.98 C 245.574 2020.07 243.706 2021.42 240.105 2017.84 C 238.456 2013.37 239.556 2006.27 239.913 2001.2 z"/>
<path transform="translate(0,0)" fill="rgb(211,246,250)" d="M 32.069 2002.41 C 38.2555 2006.18 34.0717 2010.65 33.8803 2017.51 L 33.8613 2018.54 L 33.7184 2018.84 L 32.6419 2019.05 C 31.5652 2014.64 32.0121 2007.19 32.069 2002.41 z"/>
<path transform="translate(0,0)" fill="rgb(140,231,242)" d="M 131.613 2005.43 C 132.225 2005.94 133.019 2006.97 133.57 2007.62 C 134.194 2013.1 133.791 2015.13 133.066 2020.51 C 132.493 2020.07 131.668 2019.03 131.152 2018.44 C 130.412 2012.9 130.91 2010.88 131.613 2005.43 z"/>
</svg>